STARTFONT 2.1
FONT -Adobe-Helvetica-Bold-O-Narrow--17-120-100-100-P-72-ISO8859-1
SIZE 12 100 100
FONTBOUNDINGBOX 17 17 -3 -3

STARTPROPERTIES 26
_DEC_DEVICE_FONTNAMES "PS=Helvetica-Narrow-BoldOblique"
FONTNAME_REGISTRY ""
FAMILY_NAME "Helvetica"
FOUNDRY "Adobe"
WEIGHT_NAME "Bold"
SLANT "O"
SETWIDTH_NAME "Narrow"
ADD_STYLE_NAME ""
PIXEL_SIZE 17
POINT_SIZE 120
RESOLUTION_X 100
RESOLUTION_Y 100
SPACING "P"
AVERAGE_WIDTH 72
CHARSET_REGISTRY "ISO8859"
CHARSET_ENCODING "1"
CHARSET_COLLECTIONS "ASCII ISO8859-1 ADOBE-STANDARD"
FULL_NAME "Helvetica Narrow Bold Oblique"
COPYRIGHT "Copyright (c) 1991 Adobe Systems, Inc."
CAP_HEIGHT 12
X_HEIGHT 9
WEIGHT 10
QUAD_WIDTH 8
DEFAULT_CHAR 0
FONT_DESCENT 3
FONT_ASCENT 14
ENDPROPERTIES

CHARS 190

STARTCHAR space
ENCODING 32
SWIDTH 228 0
DWIDTH 3 0
BBX 1 1 0 0
BITMAP
00
ENDCHAR

STARTCHAR exclam
ENCODING 33
SWIDTH 273 0
DWIDTH 4 0
BBX 4 12 1 0
BITMAP
30
30
30
20
60
60
40
40
00
00
C0
C0
ENDCHAR

STARTCHAR quotedbl
ENCODING 34
SWIDTH 389 0
DWIDTH 6 0
BBX 5 4 2 8
BITMAP
D8
D8
90
90
ENDCHAR

STARTCHAR numbersign
ENCODING 35
SWIDTH 456 0
DWIDTH 7 0
BBX 8 12 0 0
BITMAP
09
1B
12
7F
7F
24
24
FE
FE
48
D8
90
ENDCHAR

STARTCHAR dollar
ENCODING 36
SWIDTH 456 0
DWIDTH 7 0
BBX 9 15 0 -2
BITMAP
0200
0E00
3F00
3580
6580
6800
7C00
1F00
0B00
D300
D600
7E00
3800
2000
2000
ENDCHAR

STARTCHAR percent
ENCODING 37
SWIDTH 729 0
DWIDTH 12 0
BBX 11 11 1 0
BITMAP
30C0
7980
C900
9B00
F600
64C0
0DE0
1B20
1260
33C0
6180
ENDCHAR

STARTCHAR ampersand
ENCODING 38
SWIDTH 592 0
DWIDTH 9 0
BBX 9 12 0 0
BITMAP
0E00
1F00
3300
3300
3600
1C00
3D80
6D80
C700
C600
FF00
7980
ENDCHAR

STARTCHAR quoteright
ENCODING 39
SWIDTH 228 0
DWIDTH 4 0
BBX 2 4 3 8
BITMAP
C0
C0
40
80
ENDCHAR

STARTCHAR parenleft
ENCODING 40
SWIDTH 273 0
DWIDTH 4 0
BBX 6 15 0 -3
BITMAP
0C
18
10
30
20
60
60
40
C0
C0
C0
C0
C0
40
60
ENDCHAR

STARTCHAR parenright
ENCODING 41
SWIDTH 273 0
DWIDTH 4 0
BBX 6 15 -2 -3
BITMAP
18
08
0C
0C
0C
0C
0C
08
18
18
10
30
20
60
C0
ENDCHAR

STARTCHAR asterisk
ENCODING 42
SWIDTH 319 0
DWIDTH 5 0
BBX 6 6 1 6
BITMAP
18
10
FC
30
50
D0
ENDCHAR

STARTCHAR plus
ENCODING 43
SWIDTH 479 0
DWIDTH 8 0
BBX 7 8 1 0
BITMAP
18
18
18
FE
FE
30
30
30
ENDCHAR

STARTCHAR comma
ENCODING 44
SWIDTH 228 0
DWIDTH 3 0
BBX 2 5 0 -3
BITMAP
C0
C0
40
40
80
ENDCHAR

STARTCHAR minus
ENCODING 45
SWIDTH 479 0
DWIDTH 8 0
BBX 7 2 0 3
BITMAP
FE
FE
ENDCHAR

STARTCHAR period
ENCODING 46
SWIDTH 228 0
DWIDTH 3 0
BBX 2 2 0 0
BITMAP
C0
C0
ENDCHAR

STARTCHAR slash
ENCODING 47
SWIDTH 228 0
DWIDTH 4 0
BBX 6 11 0 0
BITMAP
04
0C
08
18
10
30
20
60
40
C0
80
ENDCHAR

STARTCHAR zero
ENCODING 48
SWIDTH 456 0
DWIDTH 7 0
BBX 8 12 0 0
BITMAP
0E
1F
33
33
63
66
66
C6
CC
CC
F8
70
ENDCHAR

STARTCHAR one
ENCODING 49
SWIDTH 456 0
DWIDTH 7 0
BBX 4 12 2 0
BITMAP
10
30
F0
30
20
60
60
60
40
C0
C0
C0
ENDCHAR

STARTCHAR two
ENCODING 50
SWIDTH 456 0
DWIDTH 7 0
BBX 8 12 0 0
BITMAP
0E
1F
33
33
03
06
1C
30
60
40
FC
FC
ENDCHAR

STARTCHAR three
ENCODING 51
SWIDTH 456 0
DWIDTH 7 0
BBX 8 12 0 0
BITMAP
0E
1F
33
33
06
1C
1C
06
C6
CE
7C
38
ENDCHAR

STARTCHAR four
ENCODING 52
SWIDTH 456 0
DWIDTH 7 0
BBX 7 12 0 0
BITMAP
06
0E
0E
1E
14
2C
6C
4C
FE
FE
18
18
ENDCHAR

STARTCHAR five
ENCODING 53
SWIDTH 456 0
DWIDTH 7 0
BBX 8 12 0 0
BITMAP
1F
1F
18
30
3C
3E
66
06
06
CC
FC
70
ENDCHAR

STARTCHAR six
ENCODING 54
SWIDTH 456 0
DWIDTH 7 0
BBX 8 12 0 0
BITMAP
0E
1F
33
30
6C
7E
66
C6
CC
CC
F8
70
ENDCHAR

STARTCHAR seven
ENCODING 55
SWIDTH 456 0
DWIDTH 7 0
BBX 7 12 1 0
BITMAP
7E
7E
06
0C
18
30
30
60
60
C0
C0
C0
ENDCHAR

STARTCHAR eight
ENCODING 56
SWIDTH 456 0
DWIDTH 7 0
BBX 8 12 0 0
BITMAP
0E
1F
33
33
36
1C
38
6C
CC
CC
F8
70
ENDCHAR

STARTCHAR nine
ENCODING 57
SWIDTH 456 0
DWIDTH 7 0
BBX 8 12 0 0
BITMAP
0E
1F
33
33
63
66
7E
36
0C
CC
F8
70
ENDCHAR

STARTCHAR colon
ENCODING 58
SWIDTH 273 0
DWIDTH 4 0
BBX 3 8 1 0
BITMAP
60
60
00
00
00
00
C0
C0
ENDCHAR

STARTCHAR semicolon
ENCODING 59
SWIDTH 273 0
DWIDTH 4 0
BBX 3 11 1 -3
BITMAP
60
60
00
00
00
00
C0
C0
40
40
80
ENDCHAR

STARTCHAR less
ENCODING 60
SWIDTH 479 0
DWIDTH 8 0
BBX 8 8 0 0
BITMAP
01
07
1C
70
E0
38
0E
02
ENDCHAR

STARTCHAR equal
ENCODING 61
SWIDTH 479 0
DWIDTH 8 0
BBX 7 6 1 1
BITMAP
7E
7E
00
00
FC
FC
ENDCHAR

STARTCHAR greater
ENCODING 62
SWIDTH 479 0
DWIDTH 8 0
BBX 8 8 0 0
BITMAP
40
70
1C
07
0E
38
E0
80
ENDCHAR

STARTCHAR question
ENCODING 63
SWIDTH 501 0
DWIDTH 8 0
BBX 6 12 3 0
BITMAP
38
7C
CC
CC
18
30
60
60
60
00
C0
C0
ENDCHAR

STARTCHAR at
ENCODING 64
SWIDTH 800 0
DWIDTH 13 0
BBX 12 14 1 -2
BITMAP
03C0
0E60
1830
3010
6350
4CD0
C890
9990
9120
9320
8CC0
4000
6180
1E00
ENDCHAR

STARTCHAR A
ENCODING 65
SWIDTH 592 0
DWIDTH 9 0
BBX 10 12 -1 0
BITMAP
0300
0700
0700
0F00
0F00
1980
1980
3180
3F80
7FC0
60C0
C0C0
ENDCHAR

STARTCHAR B
ENCODING 66
SWIDTH 592 0
DWIDTH 9 0
BBX 9 12 0 0
BITMAP
3F00
3F80
3180
3180
6300
7E00
7F00
6180
C180
C300
FF00
FC00
ENDCHAR

STARTCHAR C
ENCODING 67
SWIDTH 592 0
DWIDTH 9 0
BBX 9 12 1 0
BITMAP
0F00
3F80
3180
6180
6000
C000
C000
C000
C300
C700
FE00
7800
ENDCHAR

STARTCHAR D
ENCODING 68
SWIDTH 592 0
DWIDTH 9 0
BBX 9 12 0 0
BITMAP
3F00
3F80
3180
3180
6180
6180
6180
6300
C300
C600
FE00
F800
ENDCHAR

STARTCHAR E
ENCODING 69
SWIDTH 547 0
DWIDTH 8 0
BBX 9 12 0 0
BITMAP
3F80
3F80
3000
3000
6000
7F00
7F00
6000
C000
C000
FE00
FE00
ENDCHAR

STARTCHAR F
ENCODING 70
SWIDTH 501 0
DWIDTH 8 0
BBX 9 12 1 0
BITMAP
3F80
3F80
3000
3000
6000
7E00
7E00
6000
C000
C000
C000
C000
ENDCHAR

STARTCHAR G
ENCODING 71
SWIDTH 638 0
DWIDTH 10 0
BBX 9 12 1 0
BITMAP
0F00
3F80
3180
6180
6000
C000
C780
C780
C300
C700
FF00
7B00
ENDCHAR

STARTCHAR H
ENCODING 72
SWIDTH 592 0
DWIDTH 9 0
BBX 10 12 0 0
BITMAP
30C0
30C0
30C0
30C0
6180
7F80
7F80
6180
C300
C300
C300
C300
ENDCHAR

STARTCHAR I
ENCODING 73
SWIDTH 228 0
DWIDTH 5 0
BBX 4 12 1 0
BITMAP
30
30
30
30
60
60
60
60
C0
C0
C0
C0
ENDCHAR

STARTCHAR J
ENCODING 74
SWIDTH 456 0
DWIDTH 7 0
BBX 8 12 0 0
BITMAP
03
03
03
03
06
06
06
C6
CC
CC
FC
78
ENDCHAR

STARTCHAR K
ENCODING 75
SWIDTH 592 0
DWIDTH 10 0
BBX 10 12 1 0
BITMAP
30C0
3180
3300
3600
6C00
7800
7C00
6C00
C600
C600
C300
C380
ENDCHAR

STARTCHAR L
ENCODING 76
SWIDTH 501 0
DWIDTH 8 0
BBX 7 12 1 0
BITMAP
30
30
30
30
60
60
60
60
C0
C0
FE
FE
ENDCHAR

STARTCHAR M
ENCODING 77
SWIDTH 683 0
DWIDTH 11 0
BBX 12 12 0 0
BITMAP
3870
3870
38F0
38F0
79A0
6960
6B60
6E60
CEC0
CCC0
CCC0
CCC0
ENDCHAR

STARTCHAR N
ENCODING 78
SWIDTH 592 0
DWIDTH 9 0
BBX 10 12 0 0
BITMAP
30C0
30C0
38C0
38C0
7980
6D80
6D80
6780
C700
C700
C300
C300
ENDCHAR

STARTCHAR O
ENCODING 79
SWIDTH 638 0
DWIDTH 10 0
BBX 9 12 1 0
BITMAP
0F00
3F80
3180
6180
6180
C180
C180
C300
C300
C600
FE00
7800
ENDCHAR

STARTCHAR P
ENCODING 80
SWIDTH 547 0
DWIDTH 9 0
BBX 9 12 1 0
BITMAP
3F00
3F80
3180
3180
6180
6300
7F00
7C00
C000
C000
C000
C000
ENDCHAR

STARTCHAR Q
ENCODING 81
SWIDTH 638 0
DWIDTH 10 0
BBX 9 13 1 -1
BITMAP
0F00
3F80
3180
6180
6180
C180
C180
DB00
DB00
CE00
FE00
7700
0200
ENDCHAR

STARTCHAR R
ENCODING 82
SWIDTH 592 0
DWIDTH 9 0
BBX 10 12 0 0
BITMAP
3F80
3FC0
30C0
30C0
6180
7F80
7E00
6300
C300
C300
C300
C300
ENDCHAR

STARTCHAR S
ENCODING 83
SWIDTH 547 0
DWIDTH 9 0
BBX 10 12 0 0
BITMAP
0780
1FC0
38C0
30C0
3000
3C00
0F00
0300
C300
C700
FE00
7800
ENDCHAR

STARTCHAR T
ENCODING 84
SWIDTH 501 0
DWIDTH 9 0
BBX 8 12 2 0
BITMAP
FF
FF
18
18
18
30
30
30
30
60
60
60
ENDCHAR

STARTCHAR U
ENCODING 85
SWIDTH 592 0
DWIDTH 9 0
BBX 10 12 0 0
BITMAP
30C0
30C0
30C0
6180
6180
6180
6180
C300
C300
E700
7E00
3C00
ENDCHAR

STARTCHAR V
ENCODING 86
SWIDTH 547 0
DWIDTH 9 0
BBX 8 12 2 0
BITMAP
C3
C3
C6
C6
CC
CC
D8
78
70
70
60
60
ENDCHAR

STARTCHAR W
ENCODING 87
SWIDTH 774 0
DWIDTH 13 0
BBX 12 12 2 0
BITMAP
C630
C630
CE60
CE60
DA60
DAC0
D2C0
F380
E380
E380
C300
C300
ENDCHAR

STARTCHAR X
ENCODING 88
SWIDTH 547 0
DWIDTH 10 0
BBX 11 12 0 0
BITMAP
38E0
18C0
1980
0D80
0F00
0E00
0E00
1E00
3600
3300
6300
E380
ENDCHAR

STARTCHAR Y
ENCODING 89
SWIDTH 547 0
DWIDTH 9 0
BBX 10 12 1 0
BITMAP
E1C0
6180
6300
3300
3600
3C00
1C00
1800
1800
3000
3000
3000
ENDCHAR

STARTCHAR Z
ENCODING 90
SWIDTH 501 0
DWIDTH 9 0
BBX 10 12 0 0
BITMAP
3FC0
3FC0
0180
0300
0600
0C00
0C00
1800
3000
6000
FF00
FF00
ENDCHAR

STARTCHAR bracketleft
ENCODING 91
SWIDTH 273 0
DWIDTH 4 0
BBX 6 15 -1 -3
BITMAP
1C
1C
18
18
30
30
30
20
60
60
60
C0
C0
E0
E0
ENDCHAR

STARTCHAR backslash
ENCODING 92
SWIDTH 228 0
DWIDTH 4 0
BBX 3 11 1 0
BITMAP
80
80
80
C0
40
40
40
60
20
20
20
ENDCHAR

STARTCHAR bracketright
ENCODING 93
SWIDTH 273 0
DWIDTH 4 0
BBX 6 15 -1 -3
BITMAP
1C
1C
0C
0C
18
18
18
10
30
30
30
60
60
E0
E0
ENDCHAR

STARTCHAR asciicircum
ENCODING 94
SWIDTH 479 0
DWIDTH 8 0
BBX 6 7 1 4
BITMAP
18
38
38
6C
6C
CC
CC
ENDCHAR

STARTCHAR underscore
ENCODING 95
SWIDTH 456 0
DWIDTH 7 0
BBX 7 1 -1 -3
BITMAP
FE
ENDCHAR

STARTCHAR quoteleft
ENCODING 96
SWIDTH 228 0
DWIDTH 4 0
BBX 2 4 3 8
BITMAP
40
80
C0
C0
ENDCHAR

STARTCHAR a
ENCODING 97
SWIDTH 456 0
DWIDTH 7 0
BBX 7 9 0 0
BITMAP
1C
7E
66
0E
3E
E4
CC
FC
6C
ENDCHAR

STARTCHAR b
ENCODING 98
SWIDTH 501 0
DWIDTH 8 0
BBX 8 12 0 0
BITMAP
30
30
30
36
7F
73
63
63
C6
E6
FC
D8
ENDCHAR

STARTCHAR c
ENCODING 99
SWIDTH 456 0
DWIDTH 7 0
BBX 7 9 0 0
BITMAP
1C
3E
66
60
C0
C0
CC
FC
78
ENDCHAR

STARTCHAR d
ENCODING 100
SWIDTH 501 0
DWIDTH 8 0
BBX 9 12 0 0
BITMAP
0180
0180
0180
1D80
3F00
6700
6300
C300
C600
CE00
FE00
7600
ENDCHAR

STARTCHAR e
ENCODING 101
SWIDTH 456 0
DWIDTH 7 0
BBX 7 9 0 0
BITMAP
1C
7E
66
C6
FE
C0
CC
FC
78
ENDCHAR

STARTCHAR f
ENCODING 102
SWIDTH 273 0
DWIDTH 5 0
BBX 5 12 1 0
BITMAP
18
38
30
F8
F8
60
60
60
C0
C0
C0
C0
ENDCHAR

STARTCHAR g
ENCODING 103
SWIDTH 501 0
DWIDTH 8 0
BBX 9 12 -1 -3
BITMAP
0D80
1F80
3380
3180
6300
6300
6700
7E00
1A00
C600
FC00
7800
ENDCHAR

STARTCHAR h
ENCODING 104
SWIDTH 501 0
DWIDTH 8 0
BBX 8 12 0 0
BITMAP
30
30
30
36
7F
73
63
63
C6
C6
C6
C6
ENDCHAR

STARTCHAR i
ENCODING 105
SWIDTH 228 0
DWIDTH 3 0
BBX 4 12 0 0
BITMAP
30
30
00
60
60
60
60
60
C0
C0
C0
C0
ENDCHAR

STARTCHAR j
ENCODING 106
SWIDTH 228 0
DWIDTH 3 0
BBX 6 15 -2 -3
BITMAP
0C
0C
00
18
18
18
18
18
30
30
30
30
60
E0
C0
ENDCHAR

STARTCHAR k
ENCODING 107
SWIDTH 456 0
DWIDTH 7 0
BBX 8 12 0 0
BITMAP
30
30
30
33
66
6C
78
70
D8
D8
CC
CE
ENDCHAR

STARTCHAR l
ENCODING 108
SWIDTH 228 0
DWIDTH 3 0
BBX 4 12 0 0
BITMAP
30
30
30
30
60
60
60
60
C0
C0
C0
C0
ENDCHAR

STARTCHAR m
ENCODING 109
SWIDTH 729 0
DWIDTH 11 0
BBX 11 9 0 0
BITMAP
6DC0
7FE0
6660
6660
6660
CCC0
CCC0
CCC0
CCC0
ENDCHAR

STARTCHAR n
ENCODING 110
SWIDTH 501 0
DWIDTH 8 0
BBX 8 9 0 0
BITMAP
6E
7F
73
63
63
C6
C6
C6
C6
ENDCHAR

STARTCHAR o
ENCODING 111
SWIDTH 501 0
DWIDTH 8 0
BBX 8 9 0 0
BITMAP
1E
3F
63
63
C3
C6
C6
FC
78
ENDCHAR

STARTCHAR p
ENCODING 112
SWIDTH 501 0
DWIDTH 8 0
BBX 9 12 -1 -3
BITMAP
3700
3F80
3980
3180
3180
6300
7300
7E00
6C00
C000
C000
C000
ENDCHAR

STARTCHAR q
ENCODING 113
SWIDTH 501 0
DWIDTH 8 0
BBX 9 12 0 -3
BITMAP
1D80
3F80
6700
6300
C300
C600
CE00
FE00
7600
0C00
0C00
0C00
ENDCHAR

STARTCHAR r
ENCODING 114
SWIDTH 319 0
DWIDTH 5 0
BBX 6 9 0 0
BITMAP
6C
7C
70
60
60
C0
C0
C0
C0
ENDCHAR

STARTCHAR s
ENCODING 115
SWIDTH 456 0
DWIDTH 7 0
BBX 7 9 0 0
BITMAP
3C
7E
66
70
3C
0C
CC
FC
78
ENDCHAR

STARTCHAR t
ENCODING 116
SWIDTH 273 0
DWIDTH 5 0
BBX 5 11 1 0
BITMAP
30
30
F8
F8
60
60
60
C0
C0
E0
60
ENDCHAR

STARTCHAR u
ENCODING 117
SWIDTH 501 0
DWIDTH 8 0
BBX 8 9 0 0
BITMAP
63
63
63
63
C6
C6
CE
FE
76
ENDCHAR

STARTCHAR v
ENCODING 118
SWIDTH 456 0
DWIDTH 7 0
BBX 7 9 1 0
BITMAP
C6
CC
CC
D8
58
70
70
60
60
ENDCHAR

STARTCHAR w
ENCODING 119
SWIDTH 638 0
DWIDTH 11 0
BBX 10 9 1 0
BITMAP
CCC0
CCC0
CD80
DD80
5500
7700
7700
6600
6600
ENDCHAR

STARTCHAR x
ENCODING 120
SWIDTH 456 0
DWIDTH 8 0
BBX 8 9 0 0
BITMAP
63
67
36
3C
18
3C
6C
E6
C6
ENDCHAR

STARTCHAR y
ENCODING 121
SWIDTH 456 0
DWIDTH 8 0
BBX 9 12 0 -3
BITMAP
6180
6300
6300
3600
3600
3C00
1C00
1800
1800
3000
F000
E000
ENDCHAR

STARTCHAR z
ENCODING 122
SWIDTH 410 0
DWIDTH 7 0
BBX 7 9 0 0
BITMAP
7E
7E
0C
18
30
30
60
FC
FC
ENDCHAR

STARTCHAR braceleft
ENCODING 123
SWIDTH 319 0
DWIDTH 5 0
BBX 6 15 0 -3
BITMAP
0C
1C
18
30
30
30
60
C0
60
60
60
C0
C0
E0
60
ENDCHAR

STARTCHAR bar
ENCODING 124
SWIDTH 230 0
DWIDTH 4 0
BBX 4 15 0 -3
BITMAP
10
10
10
30
20
20
20
60
40
40
40
C0
80
80
80
ENDCHAR

STARTCHAR braceright
ENCODING 125
SWIDTH 319 0
DWIDTH 5 0
BBX 6 15 -1 -3
BITMAP
18
1C
0C
0C
18
18
18
0C
18
30
30
30
60
E0
C0
ENDCHAR

STARTCHAR asciitilde
ENCODING 126
SWIDTH 479 0
DWIDTH 8 0
BBX 6 3 1 3
BITMAP
64
FC
98
ENDCHAR

STARTCHAR exclamdown
ENCODING 161
SWIDTH 273 0
DWIDTH 4 0
BBX 4 12 0 -3
BITMAP
30
30
00
00
20
20
60
60
40
C0
C0
C0
ENDCHAR

STARTCHAR cent
ENCODING 162
SWIDTH 456 0
DWIDTH 7 0
BBX 8 13 0 -2
BITMAP
06
04
1C
3F
6B
68
D8
D0
D6
FE
78
20
60
ENDCHAR

STARTCHAR sterling
ENCODING 163
SWIDTH 456 0
DWIDTH 7 0
BBX 8 12 0 0
BITMAP
0E
1F
33
33
30
18
7E
18
18
30
FE
CC
ENDCHAR

STARTCHAR currency
ENCODING 164
SWIDTH 456 0
DWIDTH 7 0
BBX 8 8 0 2
BITMAP
33
1E
36
66
66
6C
78
CC
ENDCHAR

STARTCHAR yen
ENCODING 165
SWIDTH 456 0
DWIDTH 7 0
BBX 10 12 0 0
BITMAP
E1C0
6180
2300
3200
3600
1C00
7F00
1800
FE00
3000
3000
3000
ENDCHAR

STARTCHAR brokenbar
ENCODING 166
SWIDTH 230 0
DWIDTH 4 0
BBX 4 15 0 -3
BITMAP
10
10
10
30
20
20
00
00
00
40
40
C0
80
80
80
ENDCHAR

STARTCHAR section
ENCODING 167
SWIDTH 456 0
DWIDTH 7 0
BBX 8 15 0 -3
BITMAP
0E
1F
33
30
18
3C
6E
66
76
3C
18
0C
CC
F8
70
ENDCHAR

STARTCHAR dieresis
ENCODING 168
SWIDTH 273 0
DWIDTH 4 0
BBX 5 2 1 10
BITMAP
D8
D8
ENDCHAR

STARTCHAR copyright
ENCODING 169
SWIDTH 604 0
DWIDTH 10 0
BBX 10 12 1 0
BITMAP
0E00
3980
6080
4E40
DB40
B040
A040
B6C0
9C80
4180
6700
1C00
ENDCHAR

STARTCHAR ordfeminine
ENCODING 170
SWIDTH 303 0
DWIDTH 5 0
BBX 5 7 1 5
BITMAP
70
18
78
90
E8
00
F0
ENDCHAR

STARTCHAR guillemotleft
ENCODING 171
SWIDTH 456 0
DWIDTH 7 0
BBX 7 6 0 1
BITMAP
12
36
6C
D8
6C
24
ENDCHAR

STARTCHAR logicalnot
ENCODING 172
SWIDTH 479 0
DWIDTH 8 0
BBX 7 5 1 2
BITMAP
FE
FE
04
0C
0C
ENDCHAR

STARTCHAR hyphen
ENCODING 173
SWIDTH 273 0
DWIDTH 4 0
BBX 3 2 1 3
BITMAP
E0
E0
ENDCHAR

STARTCHAR registered
ENCODING 174
SWIDTH 604 0
DWIDTH 10 0
BBX 10 12 1 0
BITMAP
0E00
3980
6080
4E40
C940
9240
9C40
A4C0
A480
4180
6700
1C00
ENDCHAR

STARTCHAR macron
ENCODING 175
SWIDTH 273 0
DWIDTH 4 0
BBX 4 1 1 11
BITMAP
F0
ENDCHAR

STARTCHAR degree
ENCODING 176
SWIDTH 328 0
DWIDTH 5 0
BBX 4 5 2 7
BITMAP
60
D0
90
B0
60
ENDCHAR

STARTCHAR plusminus
ENCODING 177
SWIDTH 479 0
DWIDTH 8 0
BBX 8 11 0 0
BITMAP
0C
0C
0C
7F
7F
18
18
18
00
FE
FE
ENDCHAR

STARTCHAR twosuperior
ENCODING 178
SWIDTH 273 0
DWIDTH 4 0
BBX 5 7 1 5
BITMAP
30
48
08
30
40
80
F0
ENDCHAR

STARTCHAR threesuperior
ENCODING 179
SWIDTH 273 0
DWIDTH 4 0
BBX 5 7 1 5
BITMAP
30
48
18
60
10
90
60
ENDCHAR

STARTCHAR acute
ENCODING 180
SWIDTH 273 0
DWIDTH 4 0
BBX 3 2 2 10
BITMAP
60
C0
ENDCHAR

STARTCHAR mu
ENCODING 181
SWIDTH 501 0
DWIDTH 8 0
BBX 9 12 -1 -3
BITMAP
3180
3180
3180
3180
6300
6300
6700
7F00
7B00
C000
C000
C000
ENDCHAR

STARTCHAR paragraph
ENCODING 182
SWIDTH 456 0
DWIDTH 7 0
BBX 8 15 1 -3
BITMAP
1F
7A
7A
FA
F4
F4
74
14
28
28
28
28
50
50
50
ENDCHAR

STARTCHAR periodcentered
ENCODING 183
SWIDTH 228 0
DWIDTH 3 0
BBX 2 2 1 5
BITMAP
C0
C0
ENDCHAR

STARTCHAR cedilla
ENCODING 184
SWIDTH 273 0
DWIDTH 4 0
BBX 3 3 0 -3
BITMAP
40
60
C0
ENDCHAR

STARTCHAR onesuperior
ENCODING 185
SWIDTH 273 0
DWIDTH 4 0
BBX 4 7 1 5
BITMAP
10
70
10
10
20
20
20
ENDCHAR

STARTCHAR ordmasculine
ENCODING 186
SWIDTH 299 0
DWIDTH 5 0
BBX 5 7 1 5
BITMAP
30
68
48
58
30
00
F0
ENDCHAR

STARTCHAR guillemotright
ENCODING 187
SWIDTH 456 0
DWIDTH 7 0
BBX 7 6 0 1
BITMAP
48
6C
36
6C
D8
90
ENDCHAR

STARTCHAR onequarter
ENCODING 188
SWIDTH 684 0
DWIDTH 11 0
BBX 9 12 1 0
BITMAP
2080
E100
2300
2200
4400
4C80
5980
1280
2500
6F80
4100
8100
ENDCHAR

STARTCHAR onehalf
ENCODING 189
SWIDTH 684 0
DWIDTH 11 0
BBX 10 12 1 0
BITMAP
2080
E100
2300
2200
4400
4D80
5A40
1240
2180
6200
4400
8780
ENDCHAR

STARTCHAR threequarters
ENCODING 190
SWIDTH 684 0
DWIDTH 11 0
BBX 10 12 1 0
BITMAP
3040
4880
1980
6100
1200
9640
6CC0
0940
1280
37C0
2080
4080
ENDCHAR

STARTCHAR questiondown
ENCODING 191
SWIDTH 501 0
DWIDTH 8 0
BBX 6 12 1 -3
BITMAP
0C
0C
00
18
18
18
30
60
CC
CC
F8
70
ENDCHAR

STARTCHAR Agrave
ENCODING 192
SWIDTH 592 0
DWIDTH 9 0
BBX 9 14 0 0
BITMAP
0C00
0600
0000
0600
0E00
0E00
1E00
1B00
3300
3300
7F00
7F80
C180
C180
ENDCHAR

STARTCHAR Aacute
ENCODING 193
SWIDTH 592 0
DWIDTH 9 0
BBX 9 14 0 0
BITMAP
0300
0600
0000
0600
0E00
0E00
1E00
1B00
3300
3300
7F00
7F80
C180
C180
ENDCHAR

STARTCHAR Acircumflex
ENCODING 194
SWIDTH 592 0
DWIDTH 9 0
BBX 9 14 0 0
BITMAP
0E00
1B00
0000
0600
0E00
0E00
1E00
1B00
3300
3300
7F00
7F80
C180
C180
ENDCHAR

STARTCHAR Atilde
ENCODING 195
SWIDTH 592 0
DWIDTH 9 0
BBX 9 14 0 0
BITMAP
0680
0B00
0000
0600
0E00
0E00
1E00
1B00
3300
3300
7F00
7F80
C180
C180
ENDCHAR

STARTCHAR Adieresis
ENCODING 196
SWIDTH 592 0
DWIDTH 9 0
BBX 9 14 0 0
BITMAP
1B00
1B00
0000
0600
0E00
0E00
1E00
1B00
3300
3300
7F00
7F80
C180
C180
ENDCHAR

STARTCHAR Aring
ENCODING 197
SWIDTH 592 0
DWIDTH 9 0
BBX 9 14 0 0
BITMAP
0300
0500
0600
0600
0E00
0E00
1E00
1B00
3300
3300
7F00
7F80
C180
C180
ENDCHAR

STARTCHAR AE
ENCODING 198
SWIDTH 820 0
DWIDTH 13 0
BBX 15 12 -1 0
BITMAP
03FE
03FE
07C0
06C0
0C80
0DFC
19FC
3180
3F00
7F00
63F8
E3F8
ENDCHAR

STARTCHAR Ccedilla
ENCODING 199
SWIDTH 592 0
DWIDTH 9 0
BBX 9 15 1 -3
BITMAP
0F00
3F80
3180
6180
6000
C000
C000
C000
C300
C700
FE00
7800
2000
3000
6000
ENDCHAR

STARTCHAR Egrave
ENCODING 200
SWIDTH 547 0
DWIDTH 8 0
BBX 9 14 0 0
BITMAP
0C00
0600
0000
3F80
3F80
3000
3000
7F00
7F00
6000
C000
C000
FE00
FE00
ENDCHAR

STARTCHAR Eacute
ENCODING 201
SWIDTH 547 0
DWIDTH 8 0
BBX 9 14 0 0
BITMAP
0300
0600
0000
3F80
3F80
3000
3000
7F00
7F00
6000
C000
C000
FE00
FE00
ENDCHAR

STARTCHAR Ecircumflex
ENCODING 202
SWIDTH 547 0
DWIDTH 8 0
BBX 9 14 0 0
BITMAP
0E00
1B00
0000
3F80
3F80
3000
3000
7F00
7F00
6000
C000
C000
FE00
FE00
ENDCHAR

STARTCHAR Edieresis
ENCODING 203
SWIDTH 547 0
DWIDTH 8 0
BBX 9 14 0 0
BITMAP
1B00
1B00
0000
3F80
3F80
3000
3000
7F00
7F00
6000
C000
C000
FE00
FE00
ENDCHAR

STARTCHAR Igrave
ENCODING 204
SWIDTH 228 0
DWIDTH 5 0
BBX 5 14 1 0
BITMAP
30
18
00
30
30
30
30
60
60
60
C0
C0
C0
C0
ENDCHAR

STARTCHAR Iacute
ENCODING 205
SWIDTH 228 0
DWIDTH 5 0
BBX 5 14 1 0
BITMAP
18
30
00
30
30
30
30
60
60
60
C0
C0
C0
C0
ENDCHAR

STARTCHAR Icircumflex
ENCODING 206
SWIDTH 228 0
DWIDTH 5 0
BBX 6 14 1 0
BITMAP
38
6C
00
30
30
30
30
60
60
60
C0
C0
C0
C0
ENDCHAR

STARTCHAR Idieresis
ENCODING 207
SWIDTH 228 0
DWIDTH 5 0
BBX 6 14 1 0
BITMAP
6C
6C
00
30
30
30
30
60
60
60
C0
C0
C0
C0
ENDCHAR

STARTCHAR Eth
ENCODING 208
SWIDTH 592 0
DWIDTH 9 0
BBX 9 12 0 0
BITMAP
3F00
3F80
3180
3180
6180
F980
F980
6300
C300
C600
FE00
F800
ENDCHAR

STARTCHAR Ntilde
ENCODING 209
SWIDTH 592 0
DWIDTH 9 0
BBX 10 14 0 0
BITMAP
0680
0B00
0000
30C0
30C0
38C0
3980
6D80
6D80
6D80
6700
C700
C300
C300
ENDCHAR

STARTCHAR Ograve
ENCODING 210
SWIDTH 638 0
DWIDTH 10 0
BBX 9 14 1 0
BITMAP
0C00
0600
0000
0F00
3F80
3180
6180
6180
C180
C300
C300
C600
FE00
7800
ENDCHAR

STARTCHAR Oacute
ENCODING 211
SWIDTH 638 0
DWIDTH 10 0
BBX 9 14 1 0
BITMAP
0300
0600
0000
0F00
3F80
3180
6180
6180
C180
C300
C300
C600
FE00
7800
ENDCHAR

STARTCHAR Ocircumflex
ENCODING 212
SWIDTH 638 0
DWIDTH 10 0
BBX 9 14 1 0
BITMAP
0E00
1B00
0000
0F00
3F80
3180
6180
6180
C180
C300
C300
C600
FE00
7800
ENDCHAR

STARTCHAR Otilde
ENCODING 213
SWIDTH 638 0
DWIDTH 10 0
BBX 9 14 1 0
BITMAP
0680
0B00
0000
0F00
3F80
3180
6180
6180
C180
C300
C300
C600
FE00
7800
ENDCHAR

STARTCHAR Odieresis
ENCODING 214
SWIDTH 638 0
DWIDTH 10 0
BBX 9 14 1 0
BITMAP
1B00
1B00
0000
0F00
3F80
3180
6180
6180
C180
C300
C300
C600
FE00
7800
ENDCHAR

STARTCHAR multiply
ENCODING 215
SWIDTH 479 0
DWIDTH 8 0
BBX 8 8 0 0
BITMAP
22
77
3E
1C
38
7C
EE
44
ENDCHAR

STARTCHAR Oslash
ENCODING 216
SWIDTH 638 0
DWIDTH 10 0
BBX 11 12 0 0
BITMAP
07A0
1FE0
18C0
31C0
32C0
64C0
64C0
6980
7180
6300
FF00
BC00
ENDCHAR

STARTCHAR Ugrave
ENCODING 217
SWIDTH 592 0
DWIDTH 9 0
BBX 10 14 0 0
BITMAP
0C00
0600
0000
30C0
30C0
30C0
6180
6180
6180
C300
C300
C700
FE00
7C00
ENDCHAR

STARTCHAR Uacute
ENCODING 218
SWIDTH 592 0
DWIDTH 9 0
BBX 10 14 0 0
BITMAP
0300
0600
0000
30C0
30C0
30C0
6180
6180
6180
C300
C300
C700
FE00
7C00
ENDCHAR

STARTCHAR Ucircumflex
ENCODING 219
SWIDTH 592 0
DWIDTH 9 0
BBX 10 14 0 0
BITMAP
0700
0D80
0000
30C0
30C0
30C0
6180
6180
6180
C300
C300
C700
FE00
7C00
ENDCHAR

STARTCHAR Udieresis
ENCODING 220
SWIDTH 592 0
DWIDTH 9 0
BBX 10 14 0 0
BITMAP
0D80
0D80
0000
30C0
30C0
30C0
6180
6180
6180
C300
C300
C700
FE00
7C00
ENDCHAR

STARTCHAR Yacute
ENCODING 221
SWIDTH 547 0
DWIDTH 9 0
BBX 10 14 1 0
BITMAP
0600
0C00
0000
E1C0
6180
6300
3600
3600
1C00
1800
1800
3000
3000
3000
ENDCHAR

STARTCHAR Thorn
ENCODING 222
SWIDTH 547 0
DWIDTH 9 0
BBX 8 12 1 0
BITMAP
30
30
3E
3F
63
63
63
66
FE
F8
C0
C0
ENDCHAR

STARTCHAR germandbls
ENCODING 223
SWIDTH 501 0
DWIDTH 8 0
BBX 8 12 0 0
BITMAP
0E
3F
33
33
66
6C
6E
63
C3
C6
DE
D8
ENDCHAR

STARTCHAR agrave
ENCODING 224
SWIDTH 456 0
DWIDTH 7 0
BBX 7 12 0 0
BITMAP
18
0C
00
1C
7E
66
0E
3E
E4
CC
FC
6C
ENDCHAR

STARTCHAR aacute
ENCODING 225
SWIDTH 456 0
DWIDTH 7 0
BBX 7 12 0 0
BITMAP
0C
18
00
1C
7E
66
0E
3E
E4
CC
FC
6C
ENDCHAR

STARTCHAR acircumflex
ENCODING 226
SWIDTH 456 0
DWIDTH 7 0
BBX 7 12 0 0
BITMAP
1C
36
00
1C
7E
66
0E
3E
E4
CC
FC
6C
ENDCHAR

STARTCHAR atilde
ENCODING 227
SWIDTH 456 0
DWIDTH 7 0
BBX 7 12 0 0
BITMAP
1A
2C
00
1C
7E
66
0E
3E
E4
CC
FC
6C
ENDCHAR

STARTCHAR adieresis
ENCODING 228
SWIDTH 456 0
DWIDTH 7 0
BBX 7 12 0 0
BITMAP
36
36
00
1C
7E
66
0E
3E
E4
CC
FC
6C
ENDCHAR

STARTCHAR aring
ENCODING 229
SWIDTH 456 0
DWIDTH 7 0
BBX 7 13 0 0
BITMAP
06
0A
0C
00
1C
7E
66
0E
3E
E4
CC
FC
6C
ENDCHAR

STARTCHAR ae
ENCODING 230
SWIDTH 729 0
DWIDTH 11 0
BBX 11 9 0 0
BITMAP
1DC0
7FE0
6660
0E60
3FE0
E400
CCC0
FFC0
6780
ENDCHAR

STARTCHAR ccedilla
ENCODING 231
SWIDTH 456 0
DWIDTH 7 0
BBX 7 12 0 -3
BITMAP
1C
3E
66
60
C0
C0
CC
FC
78
20
30
60
ENDCHAR

STARTCHAR egrave
ENCODING 232
SWIDTH 456 0
DWIDTH 7 0
BBX 7 12 0 0
BITMAP
30
18
00
1C
7E
66
C6
FE
C0
CC
FC
78
ENDCHAR

STARTCHAR eacute
ENCODING 233
SWIDTH 456 0
DWIDTH 7 0
BBX 7 12 0 0
BITMAP
06
0C
00
1C
7E
66
C6
FE
C0
CC
FC
78
ENDCHAR

STARTCHAR ecircumflex
ENCODING 234
SWIDTH 456 0
DWIDTH 7 0
BBX 7 12 0 0
BITMAP
1C
36
00
1C
7E
66
C6
FE
C0
CC
FC
78
ENDCHAR

STARTCHAR edieresis
ENCODING 235
SWIDTH 456 0
DWIDTH 7 0
BBX 7 12 0 0
BITMAP
36
36
00
1C
7E
66
C6
FE
C0
CC
FC
78
ENDCHAR

STARTCHAR igrave
ENCODING 236
SWIDTH 228 0
DWIDTH 3 0
BBX 4 12 0 0
BITMAP
60
30
00
60
60
60
60
60
C0
C0
C0
C0
ENDCHAR

STARTCHAR iacute
ENCODING 237
SWIDTH 228 0
DWIDTH 3 0
BBX 4 12 0 0
BITMAP
30
60
00
60
60
60
60
60
C0
C0
C0
C0
ENDCHAR

STARTCHAR icircumflex
ENCODING 238
SWIDTH 228 0
DWIDTH 3 0
BBX 5 12 0 0
BITMAP
70
D8
00
60
60
60
60
60
C0
C0
C0
C0
ENDCHAR

STARTCHAR idieresis
ENCODING 239
SWIDTH 228 0
DWIDTH 3 0
BBX 5 12 0 0
BITMAP
D8
D8
00
60
60
60
60
60
C0
C0
C0
C0
ENDCHAR

STARTCHAR eth
ENCODING 240
SWIDTH 501 0
DWIDTH 8 0
BBX 8 12 0 0
BITMAP
1B
0C
36
1E
3F
63
63
C3
C6
C6
FC
78
ENDCHAR

STARTCHAR ntilde
ENCODING 241
SWIDTH 501 0
DWIDTH 8 0
BBX 8 12 0 0
BITMAP
1A
2C
00
6E
7F
73
63
63
C6
C6
C6
C6
ENDCHAR

STARTCHAR ograve
ENCODING 242
SWIDTH 501 0
DWIDTH 8 0
BBX 8 12 0 0
BITMAP
18
0C
00
1E
3F
63
63
C3
C6
C6
FC
78
ENDCHAR

STARTCHAR oacute
ENCODING 243
SWIDTH 501 0
DWIDTH 8 0
BBX 8 12 0 0
BITMAP
06
0C
00
1E
3F
63
63
C3
C6
C6
FC
78
ENDCHAR

STARTCHAR ocircumflex
ENCODING 244
SWIDTH 501 0
DWIDTH 8 0
BBX 8 12 0 0
BITMAP
0E
1B
00
1E
3F
63
63
C3
C6
C6
FC
78
ENDCHAR

STARTCHAR otilde
ENCODING 245
SWIDTH 501 0
DWIDTH 8 0
BBX 8 12 0 0
BITMAP
0D
16
00
1E
3F
63
63
C3
C6
C6
FC
78
ENDCHAR

STARTCHAR odieresis
ENCODING 246
SWIDTH 501 0
DWIDTH 8 0
BBX 8 12 0 0
BITMAP
1B
1B
00
1E
3F
63
63
C3
C6
C6
FC
78
ENDCHAR

STARTCHAR divide
ENCODING 247
SWIDTH 479 0
DWIDTH 8 0
BBX 7 8 1 0
BITMAP
18
18
00
FE
FE
00
30
30
ENDCHAR

STARTCHAR oslash
ENCODING 248
SWIDTH 501 0
DWIDTH 8 0
BBX 8 9 0 0
BITMAP
1D
3E
67
6B
DB
D6
E6
7C
B8
ENDCHAR

STARTCHAR ugrave
ENCODING 249
SWIDTH 501 0
DWIDTH 8 0
BBX 8 12 0 0
BITMAP
18
0C
00
63
63
63
63
C6
C6
CE
FE
76
ENDCHAR

STARTCHAR uacute
ENCODING 250
SWIDTH 501 0
DWIDTH 8 0
BBX 8 12 0 0
BITMAP
06
0C
00
63
63
63
63
C6
C6
CE
FE
76
ENDCHAR

STARTCHAR ucircumflex
ENCODING 251
SWIDTH 501 0
DWIDTH 8 0
BBX 8 12 0 0
BITMAP
1C
36
00
63
63
63
63
C6
C6
CE
FE
76
ENDCHAR

STARTCHAR udieresis
ENCODING 252
SWIDTH 501 0
DWIDTH 8 0
BBX 8 12 0 0
BITMAP
36
36
00
63
63
63
63
C6
C6
CE
FE
76
ENDCHAR

STARTCHAR yacute
ENCODING 253
SWIDTH 456 0
DWIDTH 8 0
BBX 9 15 0 -3
BITMAP
0600
0C00
0000
6180
6300
6300
3600
3600
3C00
1C00
1800
1800
3000
F000
E000
ENDCHAR

STARTCHAR thorn
ENCODING 254
SWIDTH 501 0
DWIDTH 8 0
BBX 9 15 -1 -3
BITMAP
1800
1800
1800
1B00
3F80
3980
3180
3180
6300
7300
7E00
6C00
C000
C000
C000
ENDCHAR

STARTCHAR ydieresis
ENCODING 255
SWIDTH 456 0
DWIDTH 8 0
BBX 9 15 0 -3
BITMAP
3600
3600
0000
6180
6300
6300
3600
3600
3C00
1C00
1800
1800
3000
F000
E000
ENDCHAR
ENDFONT
